<svg width="4938" height="716" viewBox="0 0 4938 716" fill="none" xmlns="http://www.w3.org/2000/svg">
<path d="M15 708C10.3333 708 6.66667 706.667 4 704C1.33333 701.333 5.36442e-07 697.667 5.36442e-07 693V22.9999C5.36442e-07 18.3333 1.33333 14.6666 4 12C6.66667 9.33329 10.3333 7.99995 15 7.99995H173C177.667 7.99995 181.333 9.33329 184 12C186.667 14.6666 188 18.3333 188 22.9999V541C188 545 190 547 194 547H389C393.667 547 397.333 548.333 400 551C402.667 553.667 404 557.333 404 562V693C404 697.667 402.667 701.333 400 704C397.333 706.667 393.667 708 389 708H15ZM657.406 716C590.073 716 536.073 696.667 495.406 658C455.406 619.333 435.406 567.333 435.406 502V214C435.406 148.667 455.406 96.6666 495.406 58C536.073 19.3333 590.073 -4.29153e-06 657.406 -4.29153e-06C724.74 -4.29153e-06 778.406 19.3333 818.406 58C859.073 96.6666 879.406 148.667 879.406 214V502C879.406 567.333 859.073 619.333 818.406 658C778.406 696.667 724.74 716 657.406 716ZM657.406 555C668.073 555 676.406 551 682.406 543C688.406 535 691.406 524 691.406 510V206C691.406 192 688.406 181 682.406 173C676.406 165 668.073 161 657.406 161C646.74 161 638.406 165 632.406 173C626.406 181 623.406 192 623.406 206V510C623.406 524 626.406 535 632.406 543C638.406 551 646.74 555 657.406 555ZM1141.78 716C1074.45 716 1020.45 696.667 979.781 658C939.781 619.333 919.781 567.333 919.781 502V214C919.781 148.667 939.781 96.6666 979.781 58C1020.45 19.3333 1074.45 -4.29153e-06 1141.78 -4.29153e-06C1209.11 -4.29153e-06 1262.78 19.3333 1302.78 58C1343.45 96.6666 1363.78 148.667 1363.78 214V502C1363.78 567.333 1343.45 619.333 1302.78 658C1262.78 696.667 1209.11 716 1141.78 716ZM1141.78 555C1152.45 555 1160.78 551 1166.78 543C1172.78 535 1175.78 524 1175.78 510V206C1175.78 192 1172.78 181 1166.78 173C1160.78 165 1152.45 161 1141.78 161C1131.11 161 1122.78 165 1116.78 173C1110.78 181 1107.78 192 1107.78 206V510C1107.78 524 1110.78 535 1116.78 543C1122.78 551 1131.11 555 1141.78 555ZM1619.16 716C1576.49 716 1539.16 708 1507.16 692C1475.16 676 1450.16 654 1432.16 626C1414.82 597.333 1406.16 564.667 1406.16 528V497C1406.16 492.333 1407.49 488.667 1410.16 486C1412.82 483.333 1416.49 482 1421.16 482H1577.16C1581.82 482 1585.49 483.333 1588.16 486C1590.82 488.667 1592.16 492.333 1592.16 497V519C1592.16 529.667 1594.82 538.333 1600.16 545C1605.49 551.667 1612.16 555 1620.16 555C1628.16 555 1634.82 552 1640.16 546C1645.49 540 1648.16 532.333 1648.16 523C1648.16 511.667 1642.82 500.667 1632.16 490C1621.49 478.667 1599.16 461 1565.16 437C1531.82 413.667 1504.16 392.333 1482.16 373C1460.82 353.667 1442.16 329.333 1426.16 300C1410.16 270.667 1402.16 237 1402.16 199C1402.16 159.667 1410.82 125 1428.16 95C1446.16 65 1471.16 41.6666 1503.16 25C1535.82 8.33332 1573.16 -4.29153e-06 1615.16 -4.29153e-06C1657.82 -4.29153e-06 1695.16 8.33332 1727.16 25C1759.82 41.6666 1784.82 65 1802.16 95C1820.16 125 1829.16 159.667 1829.16 199V221C1829.16 225.667 1827.82 229.333 1825.16 232C1822.49 234.667 1818.82 236 1814.16 236H1659.16C1654.49 236 1650.82 234.667 1648.16 232C1645.49 229.333 1644.16 225.667 1644.16 221V195C1644.16 185 1641.49 177 1636.16 171C1630.82 164.333 1623.82 161 1615.16 161C1606.49 161 1599.49 164.333 1594.16 171C1589.49 177.667 1587.16 186.667 1587.16 198C1587.16 211.333 1592.49 224.333 1603.16 237C1613.82 249 1635.16 266.667 1667.16 290C1709.82 321.333 1741.82 346.667 1763.16 366C1785.16 385.333 1802.16 407.333 1814.16 432C1826.82 456 1833.16 484.333 1833.16 517C1833.16 577.667 1813.49 626 1774.16 662C1734.82 698 1683.16 716 1619.16 716ZM2273.05 154C2273.05 158.667 2271.71 162.333 2269.05 165C2266.38 167.667 2262.71 169 2258.05 169H2067.05C2063.05 169 2061.05 171 2061.05 175V271C2061.05 275 2063.05 277 2067.05 277H2166.05C2170.71 277 2174.38 278.333 2177.05 281C2179.71 283.667 2181.05 287.333 2181.05 292V423C2181.05 427.667 2179.71 431.333 2177.05 434C2174.38 436.667 2170.71 438 2166.05 438H2067.05C2063.05 438 2061.05 440 2061.05 444V541C2061.05 545 2063.05 547 2067.05 547H2258.05C2262.71 547 2266.38 548.333 2269.05 551C2271.71 553.667 2273.05 557.333 2273.05 562V693C2273.05 697.667 2271.71 701.333 2269.05 704C2266.38 706.667 2262.71 708 2258.05 708H1888.05C1883.38 708 1879.71 706.667 1877.05 704C1874.38 701.333 1873.05 697.667 1873.05 693V22.9999C1873.05 18.3333 1874.38 14.6666 1877.05 12C1879.71 9.33329 1883.38 7.99995 1888.05 7.99995H2258.05C2262.71 7.99995 2266.38 9.33329 2269.05 12C2271.71 14.6666 2273.05 18.3333 2273.05 22.9999V154ZM2917.58 154C2917.58 158.667 2916.24 162.333 2913.58 165C2910.91 167.667 2907.24 169 2902.58 169H2711.58C2707.58 169 2705.58 171 2705.58 175V271C2705.58 275 2707.58 277 2711.58 277H2810.58C2815.24 277 2818.91 278.333 2821.58 281C2824.24 283.667 2825.58 287.333 2825.58 292V423C2825.58 427.667 2824.24 431.333 2821.58 434C2818.91 436.667 2815.24 438 2810.58 438H2711.58C2707.58 438 2705.58 440 2705.58 444V693C2705.58 697.667 2704.24 701.333 2701.58 704C2698.91 706.667 2695.24 708 2690.58 708H2532.58C2527.91 708 2524.24 706.667 2521.58 704C2518.91 701.333 2517.58 697.667 2517.58 693V22.9999C2517.58 18.3333 2518.91 14.6666 2521.58 12C2524.24 9.33329 2527.91 7.99995 2532.58 7.99995H2902.58C2907.24 7.99995 2910.91 9.33329 2913.58 12C2916.24 14.6666 2917.58 18.3333 2917.58 22.9999V154ZM3222.22 708C3213.55 708 3208.22 703.667 3206.22 695L3145.22 444C3143.89 440.667 3142.55 439 3141.22 439C3138.55 439 3137.22 441 3137.22 445V693C3137.22 697.667 3135.89 701.333 3133.22 704C3130.55 706.667 3126.89 708 3122.22 708H2964.22C2959.55 708 2955.89 706.667 2953.22 704C2950.55 701.333 2949.22 697.667 2949.22 693V22.9999C2949.22 18.3333 2950.55 14.6666 2953.22 12C2955.89 9.33329 2959.55 7.99995 2964.22 7.99995H3189.22C3229.22 7.99995 3264.55 17.6666 3295.22 37C3326.55 55.6667 3350.89 82 3368.22 116C3385.55 149.333 3394.22 187.667 3394.22 231C3394.22 267.667 3387.89 300.667 3375.22 330C3362.55 358.667 3344.22 382 3320.22 400C3317.55 402 3316.55 404.667 3317.22 408L3398.22 691C3398.89 692.333 3399.22 694 3399.22 696C3399.22 704 3394.55 708 3385.22 708H3222.22ZM3143.22 169C3139.22 169 3137.22 171 3137.22 175V290C3137.22 294 3139.22 296 3143.22 296H3156.22C3170.89 296 3182.89 290.667 3192.22 280C3201.55 268.667 3206.22 253 3206.22 233C3206.22 212.333 3201.55 196.667 3192.22 186C3183.55 174.667 3171.55 169 3156.22 169H3143.22ZM3754.45 708C3744.45 708 3739.12 703.333 3738.45 694L3727.45 619C3727.45 617.667 3726.79 616.333 3725.45 615C3724.12 613.667 3722.45 613 3720.45 613H3632.45C3630.45 613 3628.79 613.667 3627.45 615C3626.12 616.333 3625.45 617.667 3625.45 619L3615.45 694C3614.79 703.333 3609.45 708 3599.45 708H3442.45C3431.79 708 3427.45 702.667 3429.45 692L3571.45 21C3573.45 12.3333 3579.12 7.99995 3588.45 7.99995H3770.45C3779.79 7.99995 3785.45 12.3333 3787.45 21L3929.45 692V696C3929.45 704 3924.79 708 3915.45 708H3754.45ZM3647.45 463C3647.45 467 3649.12 469 3652.45 469H3699.45C3704.12 469 3705.79 467 3704.45 463L3677.45 283C3676.79 280.333 3675.79 279 3674.45 279C3673.12 279 3672.12 280.333 3671.45 283L3647.45 463ZM4300.7 19C4304.7 11.6666 4310.7 7.99995 4318.7 7.99995H4474.7C4479.37 7.99995 4483.04 9.33329 4485.7 12C4488.37 14.6666 4489.7 18.3333 4489.7 22.9999V693C4489.7 697.667 4488.37 701.333 4485.7 704C4483.04 706.667 4479.37 708 4474.7 708H4316.7C4312.04 708 4308.37 706.667 4305.7 704C4303.04 701.333 4301.7 697.667 4301.7 693V286C4301.7 283.333 4300.7 281.667 4298.7 281C4297.37 280.333 4296.04 281.333 4294.7 284L4237.7 380L4227.7 398H4226.7L4160.7 284C4159.37 281.333 4157.7 280.333 4155.7 281C4154.37 281 4153.7 282.667 4153.7 286V693C4153.7 697.667 4152.37 701.333 4149.7 704C4147.04 706.667 4143.37 708 4138.7 708H3980.7C3976.04 708 3972.37 706.667 3969.7 704C3967.04 701.333 3965.7 697.667 3965.7 693V22.9999C3965.7 18.3333 3967.04 14.6666 3969.7 12C3972.37 9.33329 3976.04 7.99995 3980.7 7.99995H4136.7C4145.37 7.99995 4151.37 11.6666 4154.7 19L4224.7 147C4226.04 149 4227.37 150.333 4228.7 151C4230.7 151 4232.04 149.667 4232.7 147L4300.7 19ZM4937.11 154C4937.11 158.667 4935.78 162.333 4933.11 165C4930.44 167.667 4926.78 169 4922.11 169H4731.11C4727.11 169 4725.11 171 4725.11 175V271C4725.11 275 4727.11 277 4731.11 277H4830.11C4834.78 277 4838.44 278.333 4841.11 281C4843.78 283.667 4845.11 287.333 4845.11 292V423C4845.11 427.667 4843.78 431.333 4841.11 434C4838.44 436.667 4834.78 438 4830.11 438H4731.11C4727.11 438 4725.11 440 4725.11 444V541C4725.11 545 4727.11 547 4731.11 547H4922.11C4926.78 547 4930.44 548.333 4933.11 551C4935.78 553.667 4937.11 557.333 4937.11 562V693C4937.11 697.667 4935.78 701.333 4933.11 704C4930.44 706.667 4926.78 708 4922.11 708H4552.11C4547.44 708 4543.78 706.667 4541.11 704C4538.44 701.333 4537.11 697.667 4537.11 693V22.9999C4537.11 18.3333 4538.44 14.6666 4541.11 12C4543.78 9.33329 4547.44 7.99995 4552.11 7.99995H4922.11C4926.78 7.99995 4930.44 9.33329 4933.11 12C4935.78 14.6666 4937.11 18.3333 4937.11 22.9999V154Z" fill="#141414"/>
</svg>
